<?xml version="1.0" encoding="UTF-8"?>
<svg viewBox="0 0 640 480" xmlns="http://www.w3.org/2000/svg">
 <path d="m354.02 345.16s-30.965 16.684-78.454 33.213c-28.683 10-79.628-6.867-106.15-13.891-26.563-7.049-72.459-21.629-59.724-34.364 12.736-12.732 49.354-39.888 49.354-39.888s-34.865 57.573 194.98 54.93z" fill="#fff" stroke="#ccc" stroke-width="15.477"/>
 <path d="m142.07 303.29c0 24.282 72.646 43.974 162.27 43.974 89.617 0 162.25-19.689 162.25-43.974-18.691-13.548-15.986-24.954-15.986-24.954h-293.31c0.009979-3.1e-5 2.605 11.406-15.23 24.954z" fill="#fff" stroke="#ccc" stroke-width="15.477"/>
 <path d="m432.76 191.41c-3.628-8.278-17.685-36.869-46.261-56.996-51.803-36.532-116.04-29.563-153.81-7.634-25.523 14.848-43.106 33.982-57.037 62.074-3.4 6.862-9.738 21.504-14.082 42.451-3.759 18.168-4.121 29.625-4.726 48.653 0.029999 15.899 30.204 30.239 82.196 37.222 72.762 9.744 160.7 1.28 196.39-18.902 10.213-5.772 15.034-11.914 15.014-17.896-0.75302-24.585-1.662-52.437-17.687-88.972z" fill="#fff"/>
 <path d="m432.76 191.41c-3.628-8.278-17.685-36.869-46.261-56.996-51.803-36.532-116.04-29.563-153.81-7.634-25.523 14.848-43.106 33.982-57.037 62.074-3.4 6.862-9.738 21.504-14.082 42.451-3.759 18.168-4.121 29.625-4.726 48.653 0.029999 15.899 30.204 30.239 82.196 37.222 72.762 9.744 160.7 1.28 196.39-18.902 10.213-5.772 15.034-11.914 15.014-17.896-0.75302-24.585-1.662-52.437-17.687-88.972z" fill="#fff" stroke="#ccc" stroke-width="15.477"/>
 <path d="m355.24 344.43s-30.974 16.656-78.453 33.211c-28.673 9.98-79.612-6.867-106.14-13.916-26.562-7.023-72.464-21.604-59.728-34.365 12.735-12.73 49.334-39.871 49.334-39.871s-34.849 57.576 194.99 54.941z" fill="#fff" stroke="#000" stroke-width="5.159"/>
 <path d="m143.29 302.56c0 24.284 72.624 43.959 162.26 43.959 89.613 0 162.26-19.67 162.26-43.959-18.702-13.548-15.979-24.953-15.979-24.953h-293.32c0.011017 0 2.601 11.406-15.22 24.953z" fill="#fff" stroke="#000" stroke-width="5.159"/>
 <path d="m433.99 190.67c-3.628-8.272-17.692-36.851-46.26-56.997-51.798-36.531-116.03-29.554-153.81-7.628-25.539 14.849-43.112 33.981-57.032 62.05-3.406 6.862-9.759 21.504-14.082 42.462-3.748 18.156-4.115 29.623-4.729 48.627 0.020996 15.9 30.219 30.264 82.218 37.223 72.76 9.769 160.69 1.279 196.37-18.903 10.213-5.772 15.044-11.892 15.022-17.896-0.78-24.546-1.692-52.402-17.698-88.938z" fill="#fff"/>
 <path d="m433.99 190.67c-3.628-8.272-17.692-36.851-46.26-56.997-51.798-36.531-116.03-29.554-153.81-7.628-25.539 14.849-43.112 33.981-57.032 62.05-3.406 6.862-9.759 21.504-14.082 42.462-3.748 18.156-4.115 29.623-4.729 48.627 0.020996 15.9 30.219 30.264 82.218 37.223 72.76 9.769 160.69 1.279 196.37-18.903 10.213-5.772 15.044-11.892 15.022-17.896-0.78-24.546-1.692-52.402-17.698-88.938z" fill="#fff" stroke="#000" stroke-width="5.159"/>
 <path d="m433.99 190.67c-3.628-8.272-17.692-36.851-46.26-56.997-51.798-36.531-116.03-29.554-153.81-7.628-25.539 14.849-43.112 33.981-57.032 62.05-3.406 6.862-9.759 21.504-14.082 42.462-3.748 18.156-4.115 29.623-4.729 48.627 0.020996 15.9 30.219 30.264 82.218 37.223 72.76 9.769 160.69 1.279 196.37-18.903 10.213-5.772 15.044-11.892 15.022-17.896-0.78-24.546-1.692-52.402-17.698-88.938z" fill="#fff"/>
 <path d="m380.97 128.19c-108.97-69.487-219.57 73.224-216.11 164.86l-10.137 4.09c0.005005-99.891 108.25-247.13 226.24-168.95" fill="#fff"/>
 <polygon points="164.86 293.06 149.2 312.15 154.73 297.15" fill="#fff"/>
 <path d="m197.11 311.45c-0.00499-90.409 53.949-231.27 151.65-199.29-104.77-35.459-194.01 94.259-194.01 184.97l-5.532 15.003 42.381 14.294 5.512-14.974z" fill="#fff" stroke="#000" stroke-linecap="round" stroke-linejoin="round" stroke-width="5.159"/>
 <path d="m197.1 311.45l-5.526 15.004 24.849-17.417c-3.478-91.662 55.564-250.32 164.55-180.86-118-78.152-183.87 83.371-183.87 183.28z" fill="#fff"/>
 <path d="m197.1 311.45v0l-5.526 15.004 24.849-17.417c-3.478-91.662 55.564-250.32 164.55-180.86-118-78.152-183.87 83.371-183.87 183.28z" fill="#fff" stroke="#000" stroke-linecap="round" stroke-linejoin="round" stroke-width="5.159"/>
</svg>
