<?xml version="1.0" standalone="no"?>
<!DOCTYPE svg PUBLIC "-//W3C//DTD SVG 20010904//EN" "http://www.w3.org/TR/2001/REC-SVG-20010904/DTD/svg10.dtd">
<svg version="1.0" xmlns="http://www.w3.org/2000/svg"
     width="700.000000pt" height="700.000000pt" viewBox="0 0 700.000000 700.000000"
     preserveAspectRatio="xMidYMid meet">
    <g transform="translate(0.000000,700.000000) scale(0.100000,-0.100000)"
       fill="#000000" stroke="none">
        <path d="M3569 6106 c-2 -2 -41 -7 -86 -10 -45 -4 -90 -8 -100 -10 -10 -2 -38
-7 -63 -10 -182 -25 -397 -83 -613 -166 -97 -37 -276 -132 -401 -214 -446
-290 -763 -677 -996 -1215 -66 -152 -177 -524 -194 -649 -3 -24 -8 -46 -10
-50 -2 -4 -7 -28 -11 -52 -3 -25 -8 -56 -10 -70 -4 -28 -21 -161 -29 -230 -5
-45 -15 -241 -20 -420 -5 -156 -36 -197 -295 -399 -205 -158 -366 -296 -468
-398 -60 -60 -75 -82 -88 -128 -46 -158 56 -292 321 -424 217 -107 453 -187
984 -332 25 -7 50 -14 55 -15 78 -23 565 -151 585 -154 23 -4 143 -29 170 -35
3 -1 30 -5 60 -10 30 -5 57 -9 60 -10 8 -2 122 -18 145 -21 168 -19 339 -23
470 -11 134 13 189 28 430 115 97 35 149 55 285 107 73 29 287 118 338 141 29
13 54 24 56 24 2 0 47 20 100 45 53 25 99 45 101 45 2 0 73 34 157 75 158 76
168 80 278 90 36 3 83 8 105 11 67 8 119 15 145 19 14 2 63 9 110 15 47 6 130
20 185 30 55 11 111 21 125 24 14 2 59 12 100 21 41 9 84 18 95 21 106 21 367
100 485 146 315 123 516 280 576 452 16 43 26 168 15 182 -3 5 -31 28 -61 50
-125 93 -211 207 -212 282 0 20 7 65 16 98 20 77 20 72 -6 76 -18 2 -22 10
-24 43 -3 87 -15 262 -19 300 -5 47 -15 120 -19 143 -2 10 -7 39 -10 65 -4 27
-9 59 -12 70 -6 33 -13 69 -19 102 -3 17 -11 48 -17 70 -5 22 -12 48 -14 59
-15 78 -121 403 -164 501 -222 510 -541 903 -963 1185 -129 86 -331 191 -482
249 -106 41 -353 114 -425 125 -19 3 -58 10 -85 15 -28 5 -73 12 -100 15 -28
4 -66 9 -85 12 -40 6 -446 15 -451 10z"/>
    </g>
</svg>
